<?xml version="1.0" encoding="UTF-8"?> <svg xmlns="http://www.w3.org/2000/svg" xmlns:xlink="http://www.w3.org/1999/xlink" viewBox="0 0 471 305"><defs><style>.cls-1{isolation:isolate;}.cls-2{fill:#fff;}.cls-3{opacity:0.19;mix-blend-mode:screen;}.cls-4{fill:gray;}.cls-5{fill:url(#linear-gradient);}.cls-6{fill:#767777;}.cls-7{fill:#ff7558;}.cls-8{fill:#727272;}.cls-9{fill:#02ceb3;}.cls-10{fill:url(#linear-gradient-2);}.cls-11{fill:url(#linear-gradient-3);}</style><linearGradient id="linear-gradient" x1="415.37" y1="103.16" x2="443.5" y2="103.16" gradientUnits="userSpaceOnUse"><stop offset="0" stop-color="#939598"></stop><stop offset="1" stop-color="#808285"></stop></linearGradient><linearGradient id="linear-gradient-2" x1="56.71" y1="166.28" x2="72.63" y2="166.28" xlink:href="#linear-gradient"></linearGradient><linearGradient id="linear-gradient-3" x1="75.22" y1="166.28" x2="91.14" y2="166.28" xlink:href="#linear-gradient"></linearGradient></defs><title>mytrip-logo-rect_1</title><g class="cls-1"><g id="Layer_2" data-name="Layer 2"><g id="Layer_1-2" data-name="Layer 1"><rect class="cls-2" width="471" height="305" rx="38.93" ry="38.93"></rect><g class="cls-3"><path class="cls-4" d="M429.8,38.41h17.39v92.87s.8,19-9.2,29.94l-6.37,6.68-12.54-11.73s10.72-6.07,10.72-26.3Z"></path></g><path class="cls-5" d="M426.09,38.41h17.39v92.87s.8,19-9.2,29.94l-6.37,6.68-12.54-11.73s10.72-6.07,10.72-26.3Z"></path><g class="cls-3"><path d="M340.17,104.37V68.76s-2.43-26.71,19-28.93c0,0,17.6-2.23,27.52,1.42,0,0,15.58,3.64,15.58,19.22v51.8s-1,20.23-21,20.23H225.52s-8.63-.81-12.68-4.86c0,0-3.78,4.86-11.6,4.86H147s-15.65,2.43-15.65-15.78V84.54s1.42-14.37-16.59-15.78c0,0-15.38-1.62-21.45.81,0,0-7.89,2.47-7.89,16.31v10.6s-.61,5.46,7.08,5.46h11.53s17.4.2,20.43,13.56c0,0,3,15.78-20.23,30.35,0,0-16.59,10.72-35.2,7.49,0,0-37-5.87-38.85-43.9V37.8h17.6v69.8s.81,31.36,28.12,30.55c0,0,20.43,1.21,30.75-16.59,0,0,2.83-5.06-4.65-5.06H89.69s-19.83.61-20.84-20.64c0,0-5.67-35.41,19.63-41.88,0,0,38.85-9.1,54,11.33,0,0,6.07,6.27,6.07,22.66v22.66s-.61,6.88,6.88,6.88h44.71s5.67.4,5.67-6.07V77.05h16.46v33s-.4,7,5.26,7H378.21s6.88.81,6.88-8.7V63.3s.4-7.49-11.73-7.49H368.7S357.17,55,357.17,63.7v40.67Z"></path></g><path class="cls-6" d="M336.46,104.37V68.76s-2.43-26.71,19-28.93c0,0,17.6-2.23,27.52,1.42,0,0,15.58,3.64,15.58,19.22v51.8s-1,20.23-21,20.23H221.81s-8.63-.81-12.68-4.86c0,0-3.78,4.86-11.6,4.86H143.31s-15.65,2.43-15.65-15.78V84.54s1.42-14.37-16.59-15.78c0,0-15.38-1.62-21.45.81,0,0-7.89,2.47-7.89,16.31v10.6s-.61,5.46,7.08,5.46h11.53s17.4.2,20.43,13.56c0,0,3,15.78-20.23,30.35,0,0-16.59,10.72-35.2,7.49,0,0-37-5.87-38.85-43.9V37.8H44.1v69.8s.81,31.36,28.12,30.55c0,0,20.43,1.21,30.75-16.59,0,0,2.83-5.06-4.65-5.06H86s-19.83.61-20.84-20.64c0,0-5.67-35.41,19.63-41.88,0,0,38.85-9.1,54,11.33,0,0,6.07,6.27,6.07,22.66v22.66s-.61,6.88,6.88,6.88h44.71s5.67.4,5.67-6.07V77.05h16.46v33s-.4,7,5.26,7H374.5s6.88.81,6.88-8.7V63.3s.4-7.49-11.73-7.49H365S353.46,55,353.46,63.7v40.67Z"></path><path class="cls-7" d="M302,132.49H255.05v-3.8h2.57v-13h5.31v-1.88H267V60.54h2.05V52.66h1.54V37.8L273,40.74V37.8h2.73V35.88h-1.32V34.06l2.53-1.62V21.52s-1.67-1.87.35-2.58l-2.12-2.53,1.16-1,2.21,1.77h0l2.21-1.77,1.16,1-2.12,2.53c2,.71.35,2.58.35,2.58V32.44l2.53,1.62v1.82h-1.32V37.8h2.73v2.93l2.33-2.93V52.66h1.54v7.88H290v53.26h4.11v1.88h5.31v13H302v3.8H255.05"></path><circle class="cls-2" cx="278.69" cy="46.84" r="5.11"></circle><path class="cls-8" d="M278.7,50.19A3.35,3.35,0,1,1,282,46.84,3.35,3.35,0,0,1,278.7,50.19Zm0-6.42a3.07,3.07,0,1,0,3.07,3.07A3.07,3.07,0,0,0,278.7,43.77Z"></path><rect class="cls-8" x="278.67" y="42.29" width="0.3" height="1.21"></rect><rect class="cls-8" x="280.34" y="43.45" width="1.21" height="0.3" transform="matrix(0.53, -0.85, 0.85, 0.53, 94.41, 258.16)"></rect><rect class="cls-8" x="281.77" y="45.17" width="1.21" height="0.3" transform="translate(7.92 125.72) rotate(-25.45)"></rect><rect class="cls-8" x="282.51" y="46.93" width="0.3" height="1.21" transform="translate(202.57 322.74) rotate(-83.32)"></rect><polygon class="cls-8" points="282.1 50.06 281.15 49.3 281.34 49.06 282.29 49.82 282.1 50.06"></polygon><rect class="cls-8" x="279.7" y="50.17" width="0.3" height="1.21" transform="translate(-1.43 92.91) rotate(-18.8)"></rect><rect class="cls-8" x="277" y="50.65" width="1.21" height="0.3" transform="translate(163.39 308.87) rotate(-76.5)"></rect><rect class="cls-8" x="275.1" y="49.48" width="1.21" height="0.3" transform="translate(43.82 206.81) rotate(-44.33)"></rect><polygon class="cls-8" points="274.16 47.9 274.1 47.61 275.28 47.35 275.35 47.65 274.16 47.9"></polygon><polygon class="cls-8" points="275.47 45.75 274.33 45.34 274.44 45.05 275.58 45.47 275.47 45.75"></polygon><polygon class="cls-8" points="276.59 44.22 275.85 43.26 276.09 43.08 276.83 44.04 276.59 44.22"></polygon><circle class="cls-2" cx="278.56" cy="46.84" r="0.33"></circle><rect class="cls-8" x="278.41" y="44.51" width="0.3" height="2.34"></rect><rect class="cls-8" x="279.72" y="45.97" width="0.3" height="2.84" transform="translate(127.44 286.85) rotate(-67.13)"></rect><path class="cls-6" d="M194.34,54.92a6.68,6.68,0,0,1-3.73-6.13A6.89,6.89,0,1,1,200.4,55s-2.84.85-3.2,5.79C197.2,60.84,196.76,56,194.34,54.92Z"></path><circle class="cls-9" cx="197.5" cy="48.84" r="5.4"></circle><path class="cls-6" d="M214.13,54.92a6.68,6.68,0,0,1-3.73-6.13A6.89,6.89,0,1,1,220.19,55s-2.84.85-3.2,5.79C217,60.84,216.55,56,214.13,54.92Z"></path><circle class="cls-7" cx="217.29" cy="48.84" r="5.4"></circle><g class="cls-3"><circle class="cls-4" cx="68.38" cy="166.28" r="7.96"></circle></g><circle class="cls-10" cx="64.67" cy="166.28" r="7.96"></circle><g class="cls-3"><circle class="cls-4" cx="86.89" cy="166.28" r="7.96"></circle></g><circle class="cls-11" cx="83.18" cy="166.28" r="7.96"></circle><path class="cls-9" d="M119.28,155.5H119q-2,0-2-2.26v-2.05a2.84,2.84,0,0,0-.84-2,2.62,2.62,0,0,0-2-.89,2.72,2.72,0,0,0-2,.86,2.86,2.86,0,0,0-.83,2.06,2.72,2.72,0,0,0,.83,2,2.79,2.79,0,0,0,2,.81h1.42v1.46h-1.39a4.35,4.35,0,0,1-4.35-4.35,4.26,4.26,0,0,1,1.27-3.1,4.17,4.17,0,0,1,3.09-1.29,4.27,4.27,0,0,1,2.77,1v-1h1.49v6.63q0,.67.49.67h.25ZM114,145.43a.65.65,0,0,1-.21.49.69.69,0,0,1-.5.2.7.7,0,0,1-.69-.69.69.69,0,0,1,.2-.5.65.65,0,0,1,.49-.21.71.71,0,0,1,.7.7Zm1.7,0a.66.66,0,0,1-.21.49.68.68,0,0,1-.5.2.66.66,0,0,1-.48-.2.66.66,0,0,1-.21-.48.69.69,0,0,1,.2-.5.66.66,0,0,1,.49-.21.67.67,0,0,1,.5.21A.69.69,0,0,1,115.74,145.43Z"></path><path class="cls-9" d="M123,155.5h-.42a1.87,1.87,0,0,1-1.26-.45,1.58,1.58,0,0,1-1.18.45H119V154h1.12a.42.42,0,0,0,.46-.48v-6.81h1.5v6.81a.42.42,0,0,0,.47.48H123Zm-2.51,1.39a.71.71,0,0,1-.7.7.67.67,0,0,1-.49-.21.68.68,0,0,1-.21-.5.66.66,0,0,1,.21-.48.68.68,0,0,1,.49-.21.69.69,0,0,1,.5.2A.65.65,0,0,1,120.48,156.89Zm1.63,0a.71.71,0,0,1-.7.7.67.67,0,0,1-.49-.21.68.68,0,0,1-.21-.5.65.65,0,0,1,.21-.48.68.68,0,0,1,.49-.21.69.69,0,0,1,.5.2A.65.65,0,0,1,122.11,156.89Z"></path><path class="cls-9" d="M128.47,155a2.17,2.17,0,0,1-1.28.46h-4.46V154h4.39a.42.42,0,0,0,.48-.48V148.9q0-.56-1.17-.56t-1.16.56v4h-1.5v-4.12a1.88,1.88,0,0,1,.57-1.38,3,3,0,0,1,2.08-.57,3,3,0,0,1,2.08.56,1.76,1.76,0,0,1,.6,1.34v4.87A1.7,1.7,0,0,1,128.47,155Z"></path><path class="cls-9" d="M133,155.5h-.26a1.91,1.91,0,0,1-1.38-.57,1.84,1.84,0,0,1-.59-1.37v-9.43h1.5v9.43a.42.42,0,0,0,.47.48H133Z"></path><path class="cls-9" d="M136.73,155.5h-.42a1.87,1.87,0,0,1-1.26-.45,1.58,1.58,0,0,1-1.18.45h-1.12V154h1.12a.42.42,0,0,0,.46-.48v-6.81h1.5v6.81a.42.42,0,0,0,.47.48h.42Zm-2.51,1.39a.71.71,0,0,1-.7.7.67.67,0,0,1-.49-.21.68.68,0,0,1-.21-.5.66.66,0,0,1,.21-.48.68.68,0,0,1,.49-.21.69.69,0,0,1,.5.2A.65.65,0,0,1,134.22,156.89Zm1.63,0a.71.71,0,0,1-.7.7.67.67,0,0,1-.49-.21.68.68,0,0,1-.21-.5.65.65,0,0,1,.21-.48.68.68,0,0,1,.49-.21.69.69,0,0,1,.5.2A.65.65,0,0,1,135.85,156.89Z"></path><path class="cls-9" d="M145.47,155.5h-.25A1.82,1.82,0,0,1,144,155a2.24,2.24,0,0,1-1.51.45,2.35,2.35,0,0,1-1.33-.26,2.75,2.75,0,0,1-1.36.26,2.17,2.17,0,0,1-1.46-.45,1.8,1.8,0,0,1-1.22.45h-.64V154h.64q.47,0,.47-.5v-6.79h1.5v6.48q0,.81.69.81t.64-.8v-6.49h1.5v6.49a.65.65,0,0,0,.6.8q.72,0,.72-.81v-6.48h1.5v6.79a.43.43,0,0,0,.48.5h.25Z"></path><path class="cls-9" d="M147.65,153.56a1.84,1.84,0,0,1-.58,1.37,1.91,1.91,0,0,1-1.38.57h-.49V154h.49a.42.42,0,0,0,.46-.48v-9.43h1.5Z"></path><path class="cls-9" d="M150.75,155.5h-1.49V144.13h1.49Z"></path><path class="cls-7" d="M91.35,232.15a7.54,7.54,0,0,1,.59-3.12,5.45,5.45,0,0,1,1.65-2.12,7.06,7.06,0,0,1,2.54-1.21,12.67,12.67,0,0,1,3.23-.39l.93,0q.53,0,1,.09l1,.14q.46.08.8.17a.55.55,0,0,1,.39.2.81.81,0,0,1,.08.39V235q0,1.24.59,1.59a3,3,0,0,0,1.58.36h.71v2.66h-1.05a6,6,0,0,1-2.33-.4,2.81,2.81,0,0,1-1.44-1.39,2.93,2.93,0,0,1-1.62,1,9.23,9.23,0,0,1-2.4.29h-.28a5.91,5.91,0,0,1-4.42-1.58,6.27,6.27,0,0,1-1.55-4.58Zm2.6.46a4.49,4.49,0,0,0,.83,2.89,3.46,3.46,0,0,0,2.84,1h.59a7.58,7.58,0,0,0,1-.06,3,3,0,0,0,.9-.25,1.7,1.7,0,0,0,.65-.51,1.32,1.32,0,0,0,.25-.82v-7l-1.08-.09-.87,0a10.39,10.39,0,0,0-2,.19,4,4,0,0,0-1.59.66,3.3,3.3,0,0,0-1.05,1.3,4.8,4.8,0,0,0-.39,2.06Zm.06-13a.64.64,0,0,1,.2-.49.72.72,0,0,1,.51-.19h1.21a.72.72,0,0,1,.51.19.64.64,0,0,1,.2.49v1.67a.59.59,0,0,1-.22.46.74.74,0,0,1-.49.19H94.72a.72.72,0,0,1-.51-.19.6.6,0,0,1-.2-.46Zm5,0a.6.6,0,0,1,.23-.49.8.8,0,0,1,.51-.19H101a.74.74,0,0,1,.49.19.62.62,0,0,1,.22.49v1.67a.59.59,0,0,1-.22.46.74.74,0,0,1-.49.19H99.79a.8.8,0,0,1-.51-.19.57.57,0,0,1-.23-.46Z"></path><path class="cls-7" d="M106.25,239.63a2.25,2.25,0,0,1-.74-.11q-.31-.11-.31-.32v-1.82q0-.18.31-.29a2.25,2.25,0,0,1,.74-.11h6.83v2.66Z"></path><path class="cls-7" d="M112.89,239.63a2.25,2.25,0,0,1-.74-.11q-.31-.11-.31-.32v-1.82q0-.18.31-.29a2.25,2.25,0,0,1,.74-.11h6.83v2.66Z"></path><path class="cls-7" d="M118.49,237.37q0-.18.31-.29a2.25,2.25,0,0,1,.74-.11h1.39l.68,0a3.21,3.21,0,0,0,.71-.14,1.38,1.38,0,0,0,.57-.34.85.85,0,0,0,.23-.63v-8.1a.58.58,0,0,1,.59-.59h1.42a.58.58,0,0,1,.59.59v8.5a.71.71,0,0,0,.39.39,3,3,0,0,0,.65.22,5.53,5.53,0,0,0,.73.11l.65,0h.43v2.66h-.37a11.37,11.37,0,0,1-2.06-.2,3.7,3.7,0,0,1-1.81-.82,4.1,4.1,0,0,1-1.84.82,10.46,10.46,0,0,1-1.93.2h-1a2.25,2.25,0,0,1-.74-.11q-.31-.11-.31-.32Zm1.64,5.81a.64.64,0,0,1,.2-.49.72.72,0,0,1,.51-.19H122a.72.72,0,0,1,.51.19.64.64,0,0,1,.2.49v1.67a.6.6,0,0,1-.22.45.71.71,0,0,1-.49.2h-1.21a.69.69,0,0,1-.51-.2.62.62,0,0,1-.2-.45Zm5,0a.6.6,0,0,1,.23-.49.8.8,0,0,1,.51-.19h1.21a.74.74,0,0,1,.49.19.62.62,0,0,1,.22.49v1.67a.61.61,0,0,1-.22.45.71.71,0,0,1-.49.2h-1.21a.76.76,0,0,1-.51-.2.59.59,0,0,1-.23-.45Z"></path><path class="cls-7" d="M127.33,237.37q0-.18.31-.29a2.25,2.25,0,0,1,.74-.11h14.34l-1.11-2.66-.71-1.64a7,7,0,0,0-7.3-4.67l-.39,0-.59,0-.65,0-.57,0q-.68.06-.68-.43v-1.27a.56.56,0,0,1,.12-.39.81.81,0,0,1,.46-.2,10.48,10.48,0,0,1,1.53-.22q.85-.06,1.41-.06a13.72,13.72,0,0,1,2.91.29,7.58,7.58,0,0,1,2.57,1.08,8.82,8.82,0,0,1,2.23,2.16,16.76,16.76,0,0,1,1.92,3.54l.31.8,1.3,3.31c0,.14.08.29.11.43a2.72,2.72,0,0,1,0,.56v1.11a.76.76,0,0,1-.19.54,1,1,0,0,1-.71.2H128.38a1.78,1.78,0,0,1-.76-.14q-.29-.14-.29-.29Z"></path><path class="cls-7" d="M150,217a.62.62,0,0,1,.17-.43.54.54,0,0,1,.42-.19h1.51a.5.5,0,0,1,.4.19.66.66,0,0,1,.15.43v18.15a2.74,2.74,0,0,0,.14,1,1.15,1.15,0,0,0,.4.54,1.52,1.52,0,0,0,.65.25,5.52,5.52,0,0,0,.88.06h.77v2.66H154.1a7.82,7.82,0,0,1-1.73-.17,2.92,2.92,0,0,1-1.27-.62,2.71,2.71,0,0,1-.79-1.19,5.83,5.83,0,0,1-.26-1.92Z"></path><path class="cls-7" d="M154.31,237.37q0-.18.31-.29a2.25,2.25,0,0,1,.74-.11h1.39l.68,0a3.21,3.21,0,0,0,.71-.14,1.38,1.38,0,0,0,.57-.34.85.85,0,0,0,.23-.63v-8.1a.58.58,0,0,1,.59-.59H161a.58.58,0,0,1,.59.59v8.5a.71.71,0,0,0,.39.39,3,3,0,0,0,.65.22,5.53,5.53,0,0,0,.73.11l.65,0h.43v2.66H164a11.37,11.37,0,0,1-2.06-.2,3.7,3.7,0,0,1-1.81-.82,4.1,4.1,0,0,1-1.84.82,10.46,10.46,0,0,1-1.93.2h-1a2.25,2.25,0,0,1-.74-.11q-.31-.11-.31-.32Zm1.64,5.81a.64.64,0,0,1,.2-.49.72.72,0,0,1,.51-.19h1.21a.72.72,0,0,1,.51.19.64.64,0,0,1,.2.49v1.67a.6.6,0,0,1-.22.45.71.71,0,0,1-.49.2h-1.21a.69.69,0,0,1-.51-.2.62.62,0,0,1-.2-.45Zm5,0a.6.6,0,0,1,.23-.49.8.8,0,0,1,.51-.19h1.21a.74.74,0,0,1,.49.19.62.62,0,0,1,.22.49v1.67a.61.61,0,0,1-.22.45.71.71,0,0,1-.49.2h-1.21a.76.76,0,0,1-.51-.2.59.59,0,0,1-.23-.45Z"></path><path class="cls-7" d="M163.16,237.37q0-.18.31-.29a2.25,2.25,0,0,1,.74-.11h1.17l.68,0a3,3,0,0,0,.7-.14,1.4,1.4,0,0,0,.56-.34.86.86,0,0,0,.23-.63v-6.68a.66.66,0,0,1,.15-.43.5.5,0,0,1,.4-.19h1.42a.5.5,0,0,1,.4.19.66.66,0,0,1,.15.43v7.14a.71.71,0,0,0,.39.39,3,3,0,0,0,.65.22,5.37,5.37,0,0,0,.73.11l.65,0h.65a5.07,5.07,0,0,0,.63,0,3.31,3.31,0,0,0,.66-.16,1.36,1.36,0,0,0,.53-.32.79.79,0,0,0,.22-.59V228.1a.58.58,0,0,1,.59-.59h1.42a.52.52,0,0,1,.4.17.6.6,0,0,1,.15.42v8.19a1.07,1.07,0,0,0,.93.62,9.32,9.32,0,0,0,1.55.12h.4l.66,0a3.18,3.18,0,0,0,.73-.14,1.4,1.4,0,0,0,.57-.34.82.82,0,0,0,.23-.6v-9a.58.58,0,0,1,.59-.59h1.45a.52.52,0,0,1,.4.17.6.6,0,0,1,.15.42v9.3a.7.7,0,0,0,.4.39,3.23,3.23,0,0,0,.68.22,6,6,0,0,0,.74.11l.65,0h.59v2.66h-.53a10.56,10.56,0,0,1-1.92-.2,4.33,4.33,0,0,1-1.89-.82,3.64,3.64,0,0,1-1.7.82,9.42,9.42,0,0,1-1.89.2h-.49a8.38,8.38,0,0,1-1.93-.2,4.61,4.61,0,0,1-1.69-.82,5.51,5.51,0,0,1-3.59,1h-.53a8.8,8.8,0,0,1-1.78-.2,3.63,3.63,0,0,1-1.68-.82,2.67,2.67,0,0,1-.85.53,8.31,8.31,0,0,1-1,.31,5.32,5.32,0,0,1-1,.15c-.32,0-.61,0-.88,0h-1a2.25,2.25,0,0,1-.74-.11q-.31-.11-.31-.32Z"></path><path class="cls-7" d="M187.24,237.37q0-.18.31-.29a2.25,2.25,0,0,1,.74-.11h2.47a2.48,2.48,0,0,0,1.13-.16q.23-.15.23-1V217a.58.58,0,0,1,.59-.59h1.51a.52.52,0,0,1,.4.17.6.6,0,0,1,.15.42v18.67q0,.46,0,1t0,1q0,.46-.09.83a1.76,1.76,0,0,1-.19.53,1,1,0,0,1-.49.37,3,3,0,0,1-.71.14l-1,.09q-.56,0-1.16.06l-1.13,0h-1.64a2.25,2.25,0,0,1-.74-.11q-.31-.11-.31-.32Z"></path><path class="cls-7" d="M200,217a.62.62,0,0,1,.17-.43.54.54,0,0,1,.42-.19h1.51a.5.5,0,0,1,.4.19.65.65,0,0,1,.15.43v22a.65.65,0,0,1-.15.43.5.5,0,0,1-.4.19h-1.51a.54.54,0,0,1-.42-.19A.62.62,0,0,1,200,239Z"></path><path class="cls-7" d="M234.22,237a2.49,2.49,0,0,0,1.11-.16q.25-.15.25-1v-4q0-1,0-2t0-2.21a.59.59,0,0,1,.16-.42.52.52,0,0,1,.4-.17h1.45a.56.56,0,0,1,.43.17.6.6,0,0,1,.15.42q0,1.05,0,1.76t0,1.33v2.87q0,1.48,0,2.75a18.07,18.07,0,0,1-.11,2,1.53,1.53,0,0,1-.2.53,1.08,1.08,0,0,1-.51.37,3.33,3.33,0,0,1-.82.14l-1.33.09q-.76,0-1.64.06l-1.75,0h-7.23a17.25,17.25,0,0,1-4.87-.57,7.19,7.19,0,0,1-3-1.64,5.6,5.6,0,0,1-1.51-2.6,13,13,0,0,1-.42-3.42q0-.65,0-1.34a15.3,15.3,0,0,1,.2-1.59q.09-.59.62-.59h1.3c.35,0,.5.21.46.62s-.07.88-.09,1.21,0,.67,0,1a11.93,11.93,0,0,0,.25,2.53,4.08,4.08,0,0,0,1,2,5.06,5.06,0,0,0,2.26,1.28,13.81,13.81,0,0,0,3.91.45Zm-11.56-14.44a.64.64,0,0,1,.2-.49.72.72,0,0,1,.51-.19h1.21a.72.72,0,0,1,.51.19.64.64,0,0,1,.2.49v1.67a.58.58,0,0,1-.22.46.74.74,0,0,1-.49.19h-1.21a.72.72,0,0,1-.51-.19.6.6,0,0,1-.2-.46Zm5,0a.6.6,0,0,1,.23-.49.8.8,0,0,1,.51-.19h1.21a.73.73,0,0,1,.49.19.62.62,0,0,1,.22.49v1.67a.58.58,0,0,1-.22.46.73.73,0,0,1-.49.19h-1.21a.8.8,0,0,1-.51-.19.57.57,0,0,1-.23-.46Z"></path><path class="cls-7" d="M242.07,237.52c0-.37.2-.56.59-.56H253l.68,0a3.22,3.22,0,0,0,.71-.14,1.38,1.38,0,0,0,.57-.34.85.85,0,0,0,.23-.63V217a.59.59,0,0,1,.15-.42.52.52,0,0,1,.4-.17h1.54a.52.52,0,0,1,.4.17.6.6,0,0,1,.15.42v19.23a.71.71,0,0,0,.39.39,2.91,2.91,0,0,0,.66.22,6.1,6.1,0,0,0,.74.11l.62,0h.46v2.66h-.37a10.49,10.49,0,0,1-2-.2,3.88,3.88,0,0,1-1.79-.82,4,4,0,0,1-1.87.83,11.34,11.34,0,0,1-1.93.19H242.66c-.39,0-.59-.17-.59-.53Zm4.14-18.64a.59.59,0,0,1,.15-.42.52.52,0,0,1,.4-.17h1.51c.35,0,.53.2.53.59V233.6a.6.6,0,0,1-.16.42.52.52,0,0,1-.4.17h-1.48a.52.52,0,0,1-.4-.17.59.59,0,0,1-.15-.42Z"></path><path class="cls-7" d="M259.54,237.37c0-.12.1-.22.31-.29a2.26,2.26,0,0,1,.74-.11h14.34l-1.11-2.66-.71-1.64a7,7,0,0,0-7.29-4.67l-.39,0-.59,0-.65,0-.57,0q-.68.06-.68-.43v-1.27a.56.56,0,0,1,.12-.39.81.81,0,0,1,.46-.2,10.47,10.47,0,0,1,1.53-.22c.57,0,1-.06,1.41-.06a13.73,13.73,0,0,1,2.91.29,7.58,7.58,0,0,1,2.57,1.08,8.81,8.81,0,0,1,2.23,2.16,16.7,16.7,0,0,1,1.92,3.54l.31.8,1.3,3.31c0,.14.08.29.11.43a2.79,2.79,0,0,1,0,.56v1.11a.76.76,0,0,1-.19.54,1,1,0,0,1-.71.2H260.59a1.77,1.77,0,0,1-.76-.14q-.29-.14-.29-.29Z"></path><path class="cls-7" d="M278.05,244.88c0-.29.18-.43.53-.43h.65a12.28,12.28,0,0,0,1.67-.09A2.22,2.22,0,0,0,282,244a1.62,1.62,0,0,0,.56-.91,6.83,6.83,0,0,0,.15-1.62V227.72a.59.59,0,0,1,.15-.42.52.52,0,0,1,.4-.17h1.51a.49.49,0,0,1,.37.17.6.6,0,0,1,.15.42V237h2.84v2.66h-2.87v2a12.53,12.53,0,0,1-.12,1.82,4.32,4.32,0,0,1-.46,1.45,3.36,3.36,0,0,1-1.72,1.51,8,8,0,0,1-2.89.43l-.66,0a6.31,6.31,0,0,1-.82-.09.75.75,0,0,1-.4-.17.49.49,0,0,1-.09-.33Z"></path><path class="cls-7" d="M286.86,237.37c0-.12.1-.22.31-.29a2.26,2.26,0,0,1,.74-.11h2.47a2.48,2.48,0,0,0,1.13-.16q.23-.15.23-1V217a.58.58,0,0,1,.59-.59h1.51a.52.52,0,0,1,.4.17.59.59,0,0,1,.15.42v18.67q0,.46,0,1t0,1q0,.46-.09.83a1.75,1.75,0,0,1-.19.53,1,1,0,0,1-.49.37,3,3,0,0,1-.71.14l-1,.09q-.56,0-1.16.06l-1.13,0h-1.64a2.26,2.26,0,0,1-.74-.11c-.21-.07-.31-.18-.31-.32Z"></path><path class="cls-7" d="M299.66,217a.62.62,0,0,1,.17-.43.54.54,0,0,1,.42-.19h1.51a.5.5,0,0,1,.4.19.66.66,0,0,1,.15.43v22a.66.66,0,0,1-.15.43.5.5,0,0,1-.4.19h-1.51a.54.54,0,0,1-.42-.19.62.62,0,0,1-.17-.43Z"></path><path class="cls-7" d="M314.28,240.18a4.14,4.14,0,0,1,.83-2.86,3.35,3.35,0,0,1,2.38-1,4.53,4.53,0,0,1-.29-1.25,13.51,13.51,0,0,1-.08-1.44V232a6.72,6.72,0,0,1,1.65-4.88,6.32,6.32,0,0,1,4.75-1.7,6.13,6.13,0,0,1,4.65,1.67,6.82,6.82,0,0,1,1.59,4.88v1.95a10.51,10.51,0,0,1-.15,1.85,1.07,1.07,0,0,0,.36.56,2.24,2.24,0,0,0,.62.36,3.91,3.91,0,0,0,1.34.26h.43v2.66H332a8.53,8.53,0,0,1-1.95-.25,3.41,3.41,0,0,1-1.73-1,4.18,4.18,0,0,1-1.87,1.31,8.77,8.77,0,0,1-3,.45,9.44,9.44,0,0,1-2.8-.37,4.53,4.53,0,0,1-2-1.17,2.45,2.45,0,0,0-1.38.31q-.45.31-.45,1.39v6.86a.66.66,0,0,1-.15.43.5.5,0,0,1-.4.19h-1.45a.5.5,0,0,1-.4-.19.65.65,0,0,1-.15-.43Zm5.44-6.65a5,5,0,0,0,.82,3.21,3.58,3.58,0,0,0,2.89,1,7.57,7.57,0,0,0,1.73-.17,2.38,2.38,0,0,0,1.16-.62,2.61,2.61,0,0,0,.65-1.19,7.38,7.38,0,0,0,.2-1.89v-1.64a5.43,5.43,0,0,0-.82-3.25,3.33,3.33,0,0,0-2.86-1.11,3.46,3.46,0,0,0-2.91,1.11,5.21,5.21,0,0,0-.87,3.25Z"></path><path class="cls-7" d="M332.18,239.63a2.26,2.26,0,0,1-.74-.11c-.21-.07-.31-.18-.31-.32v-1.82c0-.12.1-.22.31-.29a2.26,2.26,0,0,1,.74-.11H339v2.66Z"></path><path class="cls-7" d="M338.83,239.63a2.26,2.26,0,0,1-.74-.11c-.21-.07-.31-.18-.31-.32v-1.82c0-.12.1-.22.31-.29a2.26,2.26,0,0,1,.74-.11h6.83v2.66Z"></path><path class="cls-7" d="M344.42,237.37c0-.12.1-.22.31-.29a2.26,2.26,0,0,1,.74-.11h1.39l.68,0a3.22,3.22,0,0,0,.71-.14,1.39,1.39,0,0,0,.57-.34.86.86,0,0,0,.23-.63v-8.1a.58.58,0,0,1,.59-.59h1.42a.58.58,0,0,1,.59.59v8.5a.71.71,0,0,0,.39.39,2.94,2.94,0,0,0,.65.22,5.57,5.57,0,0,0,.73.11l.65,0h.43v2.66h-.37a11.38,11.38,0,0,1-2.06-.2,3.71,3.71,0,0,1-1.81-.82,4.09,4.09,0,0,1-1.84.82,10.46,10.46,0,0,1-1.93.2h-1a2.26,2.26,0,0,1-.74-.11c-.21-.07-.31-.18-.31-.32Zm1.64,5.81a.64.64,0,0,1,.2-.49.72.72,0,0,1,.51-.19H348a.72.72,0,0,1,.51.19.64.64,0,0,1,.2.49v1.67a.61.61,0,0,1-.22.45.71.71,0,0,1-.5.2h-1.21a.69.69,0,0,1-.51-.2.62.62,0,0,1-.2-.45Zm5,0a.6.6,0,0,1,.23-.49.79.79,0,0,1,.51-.19H353a.74.74,0,0,1,.5.19.62.62,0,0,1,.22.49v1.67a.61.61,0,0,1-.22.45.71.71,0,0,1-.5.2h-1.21a.76.76,0,0,1-.51-.2.59.59,0,0,1-.23-.45Z"></path><path class="cls-7" d="M353.26,237.37c0-.12.1-.22.31-.29a2.26,2.26,0,0,1,.74-.11h3.93V217a.6.6,0,0,1,.15-.42.52.52,0,0,1,.4-.17h1.51a.58.58,0,0,1,.59.59v10.2a7.13,7.13,0,0,1,1.78-.94,12.51,12.51,0,0,1,1.93-.54,15.67,15.67,0,0,1,1.78-.25q.82-.06,1.34-.06a13.12,13.12,0,0,1,3.52.43,6.32,6.32,0,0,1,2.6,1.39,6.16,6.16,0,0,1,1.61,2.46,10.6,10.6,0,0,1,.56,3.66v.5q0,.34,0,.79t0,.88c0,.29-.05.56-.09.82a3.36,3.36,0,0,1-.15.63h2.53v2.66H354.31a2.26,2.26,0,0,1-.74-.11c-.21-.07-.31-.18-.31-.32Zm19.35-.37a.65.65,0,0,0,.62-.51,7.73,7.73,0,0,0,.19-2.15v-.53A8.86,8.86,0,0,0,373,231a3.95,3.95,0,0,0-3-2.75,12,12,0,0,0-2.66-.26q-.53,0-1.36.06a13.36,13.36,0,0,0-1.73.25,14.77,14.77,0,0,0-1.79.49,5.53,5.53,0,0,0-1.55.8V237q.77,0,1.58,0h10.14Zm-6.27-17.46a.62.62,0,0,1,.22-.5.74.74,0,0,1,.5-.19h1.36a.69.69,0,0,1,.48.19.64.64,0,0,1,.2.5v1.67a.61.61,0,0,1-.2.46.72.72,0,0,1-.51.19H367a.72.72,0,0,1-.51-.19.61.61,0,0,1-.2-.46Z"></path><path class="cls-7" d="M377,237.37c0-.12.1-.22.31-.29a2.26,2.26,0,0,1,.74-.11h1.39l.68,0a3.22,3.22,0,0,0,.71-.14,1.39,1.39,0,0,0,.57-.34.86.86,0,0,0,.23-.63v-8.1a.58.58,0,0,1,.59-.59h1.42a.58.58,0,0,1,.59.59v8.5a.71.71,0,0,0,.39.39,2.94,2.94,0,0,0,.65.22,5.57,5.57,0,0,0,.73.11l.65,0h.43v2.66h-.37a11.38,11.38,0,0,1-2.06-.2,3.71,3.71,0,0,1-1.81-.82,4.09,4.09,0,0,1-1.84.82,10.46,10.46,0,0,1-1.93.2h-1a2.26,2.26,0,0,1-.74-.11c-.21-.07-.31-.18-.31-.32Zm4.58-16.57a.62.62,0,0,1,.22-.5.74.74,0,0,1,.5-.19h1.36a.68.68,0,0,1,.48.19.64.64,0,0,1,.2.5v1.67a.61.61,0,0,1-.2.46.72.72,0,0,1-.51.19h-1.33a.73.73,0,0,1-.51-.19.61.61,0,0,1-.2-.46Z"></path><path class="cls-7" d="M385.84,237.37c0-.12.1-.22.31-.29a2.26,2.26,0,0,1,.74-.11h1.39l.68,0a3.22,3.22,0,0,0,.71-.14,1.39,1.39,0,0,0,.57-.34.86.86,0,0,0,.23-.63v-8.1a.58.58,0,0,1,.59-.59h1.42a.58.58,0,0,1,.59.59v8.5a.71.71,0,0,0,.39.39,2.94,2.94,0,0,0,.65.22,5.57,5.57,0,0,0,.73.11l.65,0h.43v2.66h-.37a11.38,11.38,0,0,1-2.06-.2,3.71,3.71,0,0,1-1.81-.82,4.09,4.09,0,0,1-1.84.82,10.46,10.46,0,0,1-1.93.2h-1a2.26,2.26,0,0,1-.74-.11c-.21-.07-.31-.18-.31-.32Zm2-16.57a.64.64,0,0,1,.2-.5.72.72,0,0,1,.51-.19h1.21a.72.72,0,0,1,.51.19.64.64,0,0,1,.2.5v1.67a.59.59,0,0,1-.22.46.74.74,0,0,1-.49.19h-1.21a.72.72,0,0,1-.51-.19.61.61,0,0,1-.2-.46Zm5,0a.6.6,0,0,1,.23-.5.8.8,0,0,1,.51-.19h1.21a.74.74,0,0,1,.5.19.62.62,0,0,1,.22.5v1.67a.59.59,0,0,1-.22.46.74.74,0,0,1-.5.19h-1.21a.8.8,0,0,1-.51-.19.57.57,0,0,1-.23-.46Z"></path><path class="cls-7" d="M394.69,237.37c0-.12.1-.22.31-.29a2.26,2.26,0,0,1,.74-.11h2.47a2.48,2.48,0,0,0,1.13-.16q.23-.15.23-1V217a.58.58,0,0,1,.59-.59h1.51a.52.52,0,0,1,.4.17.59.59,0,0,1,.15.42v18.67q0,.46,0,1t0,1q0,.46-.09.83a1.75,1.75,0,0,1-.19.53,1,1,0,0,1-.49.37,3,3,0,0,1-.71.14l-1,.09q-.56,0-1.16.06l-1.13,0h-1.64a2.26,2.26,0,0,1-.74-.11c-.21-.07-.31-.18-.31-.32Z"></path><path class="cls-6" d="M132.49,263.34H125.3v20.54h-4.74V263.34h-7.09v-4.19h19Z"></path><path class="cls-6" d="M151.33,274.61q0,5.75-1.37,7.48-1.57,2-6.82,2-5,0-6.67-2.3-1.27-1.78-1.27-6.75,0-5.22,1.59-7t6.75-1.74q4.44,0,6,1.56T151.33,274.61Zm-4.12.07q0-3.26-.66-4.23t-3.11-.92q-2.71,0-3.38.89t-.71,4.53q0,4.12.59,5.08t3.34,1q2.52,0,3.15-.93Q147.21,278.95,147.21,274.68Z"></path><path class="cls-6" d="M173.53,283.88h-3.89l.07-2.81h-.14a4.52,4.52,0,0,1-2.08,2.4,7.51,7.51,0,0,1-3.38.67q-5.86,0-5.86-5.94V266.6h4.12v10.69a5.13,5.13,0,0,0,.48,2.71,3,3,0,0,0,2.56.89q2.48,0,3.33-1.15a6.29,6.29,0,0,0,.71-3.52V266.6h4.08Z"></path><path class="cls-6" d="M194.44,273.2h-3.78q0-.78,0-1.22a3,3,0,0,0-.37-1.67,2.17,2.17,0,0,0-1.93-.81,2.59,2.59,0,0,0-2.38,1,6,6,0,0,0-.62,3.11v10.31h-4.12V266.57h3.93l-.07,2.3h.15a4.41,4.41,0,0,1,1.81-1.93,5.28,5.28,0,0,1,2.6-.63q3,0,4,2A11.86,11.86,0,0,1,194.44,273.2Z"></path><path class="cls-6" d="M234.66,274.68q0,5.27-2,7.2-2.26,2.23-8.86,2.23-6.08,0-8.15-2.15-1.93-2-1.93-7.71v-5.19q0-5.86,2.41-8t8.08-2q6.26,0,8.42,2.15,2,2,2,7.64Zm-4.74,0v-6.6q0-3.12-1-4.12t-4.6-1q-3.7,0-4.74.89t-1.08,4.53v6.09q0,3.71,1.11,4.75.92.85,4.15.85,3.7,0,4.93-1.07T229.92,274.69Z"></path><path class="cls-6" d="M257.31,275.09q0,4.52-1,6.34-1.41,2.67-5.56,2.67a8.21,8.21,0,0,1-3.08-.45,4.59,4.59,0,0,1-2.26-2.1v9.63h-4.12V266.6h4V269a5.63,5.63,0,0,1,2.19-2.08,7.08,7.08,0,0,1,3-.55q4.23,0,5.67,2.3Q257.31,270.46,257.31,275.09Zm-4.19.12q0-3.53-.63-4.6t-3.08-1q-2.63,0-3.29.92t-.71,4.6a10.2,10.2,0,0,0,.62,4.38q.78,1.4,3.27,1.4t3.26-1.33A10.74,10.74,0,0,0,253.12,275.21Z"></path><path class="cls-6" d="M279.54,278.36a7.13,7.13,0,0,1,0,.81,4.12,4.12,0,0,1-2.34,4.11,12.47,12.47,0,0,1-5.19.82q-5.24,0-6.83-2-1.37-1.74-1.37-7.19,0-4.79,1.44-6.53,1.68-2,6.31-2,5.38,0,6.86,2.3,1.08,1.67,1.08,7.3h-11.6q0,3.12.53,3.93.78,1.22,3.67,1.22a4.94,4.94,0,0,0,2.33-.41,2.45,2.45,0,0,0,1-2.33Zm-4-5q0-2.56-.67-3.3t-3.19-.74q-2.3,0-3,.82a5,5,0,0,0-.74,3.22Z"></path><path class="cls-6" d="M299.89,273.2h-3.78q0-.78,0-1.22a3,3,0,0,0-.37-1.67,2.17,2.17,0,0,0-1.93-.81,2.59,2.59,0,0,0-2.38,1,6.05,6.05,0,0,0-.62,3.11v10.31h-4.12V266.57h3.93l-.07,2.3h.15a4.42,4.42,0,0,1,1.81-1.93,5.29,5.29,0,0,1,2.6-.63q3,0,4,2A11.86,11.86,0,0,1,299.89,273.2Z"></path><path class="cls-6" d="M321.1,283.88h-3.93v-2.15a4.3,4.3,0,0,1-2.38,2,10.53,10.53,0,0,1-3.22.37,8,8,0,0,1-4.49-1q-1.74-1.22-1.74-4.19,0-3.15,1.7-4.44a7.84,7.84,0,0,1,4.67-1.11,12.27,12.27,0,0,1,3.61.37,3.13,3.13,0,0,1,1.67,1.48l0-2.63a3.91,3.91,0,0,0-.74-2.82,4.66,4.66,0,0,0-2.93-.67,3.84,3.84,0,0,0-2.62.67,2.52,2.52,0,0,0-.56,1.85h-4.16q0-3.37,2.08-4.44a12,12,0,0,1,5.08-.74q4.16,0,5.79,1,2.23,1.3,2.23,5.2ZM317,278.65a2.28,2.28,0,0,0-.67-1.93,6.1,6.1,0,0,0-3.33-.62,5.07,5.07,0,0,0-2.75.56,2,2,0,0,0-.82,1.82,2.61,2.61,0,0,0,.86,2.34,5.1,5.1,0,0,0,2.59.44,7.6,7.6,0,0,0,2.79-.37A2.17,2.17,0,0,0,317,278.65Z"></path><path class="cls-6" d="M340.41,277.29q0,3.74-1,5.14-1.19,1.67-4.56,1.67-3.11,0-4.33-1-1.41-1.11-1.41-4.12v-9.34h-2.19v-3.11h2.19v-3.89h4.08v3.89h6.53v3.11h-6.53v8.79a8.75,8.75,0,0,0,.07,1.45q.25,1,1.74,1a1.91,1.91,0,0,0,1.64-.66,3.65,3.65,0,0,0,.44-2,3.92,3.92,0,0,0,0-.53,3.67,3.67,0,0,1,0-.48Z"></path><path class="cls-6" d="M362.14,274.61q0,5.75-1.37,7.48-1.57,2-6.82,2-5,0-6.67-2.3Q346,280,346,275.06q0-5.22,1.59-7t6.75-1.74q4.44,0,6,1.56T362.14,274.61Zm-4.12.07q0-3.26-.66-4.23t-3.11-.92q-2.71,0-3.38.89t-.71,4.53q0,4.12.59,5.08t3.33,1q2.53,0,3.15-.93Q358,278.95,358,274.68Z"></path><path class="cls-6" d="M382.19,273.2h-3.78q0-.78,0-1.22a3,3,0,0,0-.37-1.67,2.17,2.17,0,0,0-1.93-.81,2.59,2.59,0,0,0-2.38,1,6.05,6.05,0,0,0-.62,3.11v10.31H369V266.57H373l-.07,2.3H373a4.42,4.42,0,0,1,1.81-1.93,5.29,5.29,0,0,1,2.6-.63q3,0,4,2A11.86,11.86,0,0,1,382.19,273.2Z"></path><rect class="cls-9" x="92.6" y="272.23" width="14.91" height="4.18"></rect><rect class="cls-9" x="389.79" y="272.23" width="14.91" height="4.18"></rect><path class="cls-9" d="M179.37,184.23A25.7,25.7,0,0,1,192,185.62s7.34-7.34,13-7.34l-9,8.1,9,3.29,4.81-2.4,1.14.13-2.53,2.28s85.5,12.88,155.59,0c0,0-47.75,14.88-155.21,2.53l.38,3-.82.82-2.85-4.68-10-1.08,3,11.07s-3,.82-8.1-12.14C190.51,189.22,181.27,187.71,179.37,184.23Z"></path><path class="cls-6" d="M182.78,178.28h-7.56v-39h10.11l9.92,28.4,9.9-28.4h10.11v39h-7.54l.27-28.35-9.87,28.35h-5.77l-9.9-28.35Z"></path><path class="cls-6" d="M220.64,148.78h7.27l7.19,20.6,7.91-20.6h7.19l-15.93,39h-7.08l4.13-10.38Z"></path><path class="cls-7" d="M302,139.23v6.87H283v32.18h-7.62V146.1H255.05v-6.87Z"></path><path class="cls-6" d="M316.76,154.76q-4,.32-5.58,2.09t-1.58,6.38v15h-6.87v-29.5h6.44v3.41a10.14,10.14,0,0,1,3.41-2.91,9.23,9.23,0,0,1,4.18-.93Z"></path><path class="cls-6" d="M329,145.78h-6.7v-6.54H329Zm-6.7,32.51v-29.5H329v29.5Z"></path><path class="cls-6" d="M344.13,175.92v11.91h-6.76v-39h6.76v2.47a14.89,14.89,0,0,1,4.32-2.43,14.54,14.54,0,0,1,4.85-.79,15.67,15.67,0,0,1,5.26.87,13.46,13.46,0,0,1,4.43,2.59,15.88,15.88,0,0,1,5.53,12.12,15.69,15.69,0,0,1-1.3,6.3,14.93,14.93,0,0,1-3.69,5.18,14.19,14.19,0,0,1-4.65,3,15,15,0,0,1-5.51,1,15.62,15.62,0,0,1-5.06-.76A13.13,13.13,0,0,1,344.13,175.92Zm.27-12.52a8.74,8.74,0,0,0,2.44,6.32,8,8,0,0,0,6,2.53,8.14,8.14,0,0,0,6-2.57,8.53,8.53,0,0,0,2.51-6.17,8.31,8.31,0,0,0-2.52-6.2,8.72,8.72,0,0,0-6.36-2.47,7.71,7.71,0,0,0-5.77,2.48A8.43,8.43,0,0,0,344.4,163.4Z"></path></g></g></g></svg> 